<?xml version="1.0" encoding="UTF-8"?>
<!DOCTYPE svg PUBLIC "-//W3C//DTD SVG 1.1//EN" "http://www.w3.org/Graphics/SVG/1.1/DTD/svg11.dtd">
<!-- Creator: CorelDRAW 2017 -->
<svg xmlns="http://www.w3.org/2000/svg" xml:space="preserve" width="270.933mm" height="203.2mm" version="1.1" style="shape-rendering:geometricPrecision; text-rendering:geometricPrecision; image-rendering:optimizeQuality; fill-rule:evenodd; clip-rule:evenodd"
viewBox="0 0 27093.32 20320"
 xmlns:xlink="http://www.w3.org/1999/xlink">
 <defs>
  <style type="text/css">
   <![CDATA[
    .str0 {stroke:black;stroke-width:20;stroke-miterlimit:22.9256}
    .fil0 {fill:none}
    .fil1 {fill:black;fill-rule:nonzero}
   ]]>
  </style>
 </defs>
 <g id="Layer_x0020_1">
  <metadata id="CorelCorpID_0Corel-Layer"/>
  <ellipse class="fil0 str0" cx="13546.66" cy="10160" rx="4254.96" ry="3968.75"/>
  <path class="fil1" d="M11948 8351.52l0 -381.85 -66.04 0 0 -57.57 66.04 0 0 -46.57c0,-29.49 2.54,-51.36 7.76,-65.62 7.2,-19.19 19.62,-34.85 37.68,-46.84 17.92,-12 43.18,-17.93 75.63,-17.93 21.03,0 44.17,2.54 69.57,7.48l-11.15 65.2c-15.52,-2.68 -30.05,-4.1 -43.88,-4.1 -22.58,0 -38.52,4.8 -47.98,14.4 -9.31,9.59 -13.97,27.51 -13.97,53.76l0 40.22 85.51 0 0 57.57 -84.66 0 0 381.85 -74.51 0z"/>
  <path id="1" class="fil1" d="M12452.47 8351.52l0 -65.33c-34.15,49.81 -80.43,74.64 -138.99,74.64 -25.83,0 -49.96,-4.94 -72.39,-14.81 -22.44,-10.02 -39.09,-22.44 -49.96,-37.4 -10.86,-15.1 -18.48,-33.44 -22.86,-55.17 -2.96,-14.68 -4.51,-37.82 -4.51,-69.43l0 -271.92 74.5 0 0 243.13c0,38.81 1.56,65.06 4.52,78.46 4.66,19.62 14.53,34.86 29.77,46 15.1,11.15 33.73,16.8 56.03,16.8 22.29,0 43.18,-5.65 62.65,-17.08 19.47,-11.43 33.3,-27.09 41.49,-46.71 8.04,-19.61 12.13,-48.26 12.13,-85.65l0 -234.95 74.51 0 0 439.42 -66.89 0z"/>
  <polygon id="2" class="fil1" points="12634.65,8351.52 12634.65,7745.3 12709.15,7745.3 12709.15,8351.52 "/>
  <polygon id="3" class="fil1" points="12822.75,8351.52 12822.75,7745.3 12897.25,7745.3 12897.25,8351.52 "/>
  <polygon id="4" class="fil1" points="12982.91,8169.49 12982.91,8094.98 13213.2,8094.98 13213.2,8169.49 "/>
  <path id="5" class="fil1" d="M13264.85 8220.29l73.66 -11.86c4.09,29.5 15.66,52.07 34.57,67.88 18.91,15.66 45.44,23.56 79.3,23.56 34.29,0 59.69,-6.91 76.35,-20.88 16.51,-13.83 24.83,-30.2 24.83,-48.97 0,-16.79 -7.48,-30.05 -22.29,-39.65 -10.45,-6.63 -35.85,-14.96 -76.2,-25.26 -54.47,-13.69 -92.15,-25.54 -113.32,-35.56 -21.02,-10.16 -36.97,-23.99 -47.83,-41.77 -10.87,-17.64 -16.37,-37.25 -16.37,-58.7 0,-19.61 4.51,-37.68 13.4,-54.33 9.03,-16.65 21.17,-30.48 36.55,-41.48 11.57,-8.47 27.38,-15.67 47.27,-21.6 20.04,-5.92 41.35,-8.89 64.21,-8.89 34.43,0 64.63,4.94 90.59,14.96 26.11,9.88 45.3,23.43 57.72,40.36 12.27,17.08 20.88,39.79 25.54,68.3l-72.82 10.16c-3.24,-22.86 -12.84,-40.78 -28.64,-53.62 -15.81,-12.84 -38.1,-19.19 -67.03,-19.19 -34.01,0 -58.42,5.64 -72.95,16.93 -14.54,11.29 -21.88,24.55 -21.88,39.65 0,9.6 2.97,18.35 9.03,26.11 6.07,7.9 15.53,14.53 28.51,19.75 7.48,2.82 29.21,9.17 65.62,19.05 52.49,13.97 89.18,25.54 110.06,34.43 20.89,8.89 37.26,22.02 49.11,38.95 11.99,17.07 17.92,38.24 17.92,63.64 0,24.7 -7.2,47.98 -21.73,69.85 -14.53,21.87 -35.42,38.81 -62.65,50.8 -27.38,12 -58.28,17.92 -92.71,17.92 -57.01,0 -100.62,-11.85 -130.53,-35.42 -29.92,-23.7 -48.97,-58.7 -57.29,-105.12z"/>
  <path id="6" class="fil1" d="M13879.53 8285.06l10.16 65.75c-20.88,4.38 -39.65,6.64 -56.02,6.64 -26.95,0 -47.83,-4.24 -62.79,-12.84 -14.82,-8.61 -25.26,-19.76 -31.33,-33.73 -6.07,-13.97 -9.03,-43.32 -9.03,-88.05l0 -253.16 -55.03 0 0 -57.57 55.03 0 0 -108.66 74.51 -44.73 0 153.39 74.5 0 0 57.57 -74.5 0 0 257.39c0,21.31 1.27,35 3.95,41.06 2.54,6.07 6.77,10.87 12.7,14.54 5.93,3.53 14.39,5.36 25.4,5.36 8.18,0 19.05,-0.99 32.45,-2.96z"/>
  <path id="7" class="fil1" d="M14240.07 8296.49c-27.66,23.56 -54.33,40.07 -79.87,49.81 -25.54,9.74 -52.91,14.53 -82.27,14.53 -48.26,0 -85.37,-11.71 -111.33,-35.27 -25.97,-23.43 -38.95,-53.49 -38.95,-90.03 0,-21.45 4.94,-41.07 14.68,-58.85 9.87,-17.78 22.71,-31.89 38.52,-42.61 15.94,-10.73 33.72,-18.91 53.62,-24.42 14.68,-3.81 36.83,-7.47 66.32,-11.14 60.12,-7.06 104.57,-15.67 132.93,-25.54 0.28,-10.16 0.42,-16.66 0.42,-19.34 0,-30.19 -7.05,-51.5 -21.16,-63.92 -19.05,-16.79 -47.42,-25.12 -84.95,-25.12 -35.14,0 -61.1,6.21 -77.75,18.49 -16.8,12.27 -29.07,34.01 -37.12,65.33l-72.81 -10.16c6.63,-31.18 17.5,-56.44 32.74,-75.63 15.24,-19.19 37.25,-33.87 66.04,-44.31 28.64,-10.3 62.09,-15.53 99.91,-15.53 37.53,0 68.15,4.38 91.72,13.27 23.42,8.89 40.78,19.9 51.79,33.3 11,13.41 18.76,30.34 23.28,50.8 2.4,12.7 3.67,35.56 3.67,68.44l0 98.78c0,69 1.55,112.61 4.65,131.09 2.97,18.49 9.18,36.13 18.21,53.06l-77.9 0c-7.47,-15.66 -12.27,-34.01 -14.39,-55.03zm-5.93 -165.1c-27.09,11 -67.73,20.32 -121.92,27.94 -30.76,4.37 -52.49,9.31 -65.19,14.81 -12.7,5.51 -22.44,13.55 -29.35,23.99 -6.92,10.58 -10.44,22.3 -10.44,35.28 0,19.61 7.48,36.12 22.57,49.25 15.1,13.12 37.12,19.75 66.05,19.75 28.64,0 54.18,-6.21 76.62,-18.76 22.29,-12.42 38.8,-29.5 49.25,-51.09 8.04,-16.79 11.99,-41.48 11.99,-74.08l0.42 -27.09z"/>
  <path id="8" class="fil1" d="M14710.96 8190.65l72.81 10.16c-8.04,50.1 -28.36,89.19 -61.24,117.55 -32.88,28.36 -73.38,42.47 -121.21,42.47 -59.97,0 -108.24,-19.61 -144.64,-58.84 -36.55,-39.23 -54.75,-95.39 -54.75,-168.49 0,-47.41 7.9,-88.76 23.56,-124.32 15.67,-35.42 39.51,-62.09 71.69,-79.72 32.03,-17.79 66.88,-26.68 104.7,-26.68 47.56,0 86.64,12 116.84,36.13 30.34,24.13 49.81,58.42 58.28,102.73l-71.97 11.01c-6.91,-29.5 -19.05,-51.65 -36.68,-66.61 -17.5,-14.82 -38.67,-22.29 -63.5,-22.29 -37.54,0 -68.02,13.4 -91.59,40.21 -23.42,26.95 -35.13,69.29 -35.13,127.43 0,58.98 11.29,101.74 33.86,128.41 22.72,26.67 52.22,40.07 88.48,40.07 29.35,0 53.76,-8.89 73.24,-26.81 19.61,-17.78 32.03,-45.29 37.25,-82.41z"/>
  <polygon id="9" class="fil1" points="14847.56,8351.52 14847.56,7745.3 14922.07,7745.3 14922.07,8090.6 15098.18,7912.1 15194.41,7912.1 15026.77,8075.36 15211.35,8351.52 15119.63,8351.52 14973.72,8127.01 14922.07,8177.25 14922.07,8351.52 "/>
  <path class="fil1" d="M11831.72 12259.01c-27.66,23.56 -54.33,40.07 -79.87,49.81 -25.54,9.74 -52.91,14.53 -82.27,14.53 -48.26,0 -85.37,-11.71 -111.33,-35.27 -25.97,-23.43 -38.95,-53.49 -38.95,-90.03 0,-21.45 4.94,-41.07 14.68,-58.85 9.87,-17.78 22.71,-31.89 38.52,-42.61 15.94,-10.73 33.72,-18.91 53.62,-24.42 14.68,-3.81 36.83,-7.47 66.32,-11.14 60.12,-7.06 104.57,-15.67 132.93,-25.54 0.28,-10.16 0.42,-16.66 0.42,-19.34 0,-30.19 -7.05,-51.5 -21.16,-63.92 -19.05,-16.79 -47.42,-25.12 -84.95,-25.12 -35.14,0 -61.1,6.21 -77.75,18.49 -16.8,12.27 -29.07,34.01 -37.12,65.33l-72.81 -10.16c6.63,-31.18 17.5,-56.44 32.74,-75.63 15.24,-19.19 37.25,-33.87 66.04,-44.31 28.64,-10.3 62.09,-15.53 99.91,-15.53 37.53,0 68.15,4.38 91.72,13.27 23.42,8.89 40.78,19.9 51.79,33.3 11,13.41 18.76,30.34 23.28,50.8 2.4,12.7 3.67,35.56 3.67,68.44l0 98.78c0,69 1.55,112.61 4.65,131.09 2.97,18.49 9.18,36.13 18.21,53.06l-77.9 0c-7.47,-15.66 -12.27,-34.01 -14.39,-55.03zm-5.93 -165.1c-27.09,11 -67.73,20.32 -121.92,27.94 -30.76,4.37 -52.49,9.31 -65.19,14.81 -12.7,5.51 -22.44,13.55 -29.35,23.99 -6.92,10.58 -10.44,22.3 -10.44,35.28 0,19.61 7.48,36.12 22.57,49.25 15.1,13.12 37.12,19.75 66.05,19.75 28.64,0 54.18,-6.21 76.62,-18.76 22.29,-12.42 38.8,-29.5 49.25,-51.09 8.04,-16.79 11.99,-41.48 11.99,-74.08l0.42 -27.09z"/>
  <polygon id="1" class="fil1" points="12013.9,12314.04 12013.9,11707.82 12088.4,11707.82 12088.4,12314.04 "/>
  <path id="2" class="fil1" d="M12503.41 12171.8l77.05 10.16c-12,44.73 -34.43,79.59 -67.17,104.28 -32.74,24.7 -74.51,37.11 -125.45,37.11 -64.06,0 -114.86,-19.75 -152.4,-59.26 -37.54,-39.37 -56.3,-94.83 -56.3,-166.09 0,-73.66 18.91,-130.95 56.86,-171.59 37.96,-40.79 87.21,-61.11 147.75,-61.11 58.56,0 106.4,19.9 143.51,59.84 37.11,39.93 55.74,96.09 55.74,168.48 0,4.38 -0.14,11.01 -0.42,19.76l-327.24 0c2.82,48.12 16.37,85.09 40.92,110.63 24.41,25.54 55.03,38.38 91.58,38.38 27.24,0 50.52,-7.19 69.71,-21.59 19.33,-14.39 34.57,-37.39 45.86,-69zm-243.84 -119.38l244.69 0c-3.25,-36.97 -12.7,-64.63 -28.08,-83.12 -23.57,-28.64 -54.33,-43.03 -92.01,-43.03 -34.15,0 -62.79,11.43 -86.08,34.29 -23.14,22.86 -35.98,53.48 -38.52,91.86z"/>
  <path id="3" class="fil1" d="M12623.78 12314.04l160.44 -227.61 -148.59 -211.81 91.58 0 69.43 103.72c12.84,19.47 23,35.27 30.2,47.69 12.56,-17.64 23.71,-33.58 33.73,-47.84l73.09 -103.57 91.02 0 -149.44 211.81 159.17 227.61 -90.59 0 -90.87 -135.47 -20.75 -32.59 -117.4 168.06 -91.02 0z"/>
  <path id="4" class="fil1" d="M13097.07 12314.04l0 -439.42 66.89 0 0 67.31c17.07,-31.19 32.88,-51.79 47.41,-61.67 14.54,-10.02 30.48,-14.96 47.84,-14.96 25.12,0 50.66,7.91 76.62,23.57l-26.52 68.72c-18.07,-10.16 -36.13,-15.24 -54.19,-15.24 -16.23,0 -30.76,4.94 -43.6,14.68 -12.85,9.73 -22.02,23.28 -27.52,40.64 -8.33,26.39 -12.42,55.31 -12.42,86.78l0 229.59 -74.51 0z"/>
  <path id="5" class="fil1" d="M13679.58 12171.8l77.05 10.16c-12,44.73 -34.43,79.59 -67.17,104.28 -32.74,24.7 -74.51,37.11 -125.45,37.11 -64.06,0 -114.86,-19.75 -152.4,-59.26 -37.54,-39.37 -56.3,-94.83 -56.3,-166.09 0,-73.66 18.91,-130.95 56.86,-171.59 37.96,-40.79 87.21,-61.11 147.75,-61.11 58.56,0 106.4,19.9 143.51,59.84 37.11,39.93 55.74,96.09 55.74,168.48 0,4.38 -0.14,11.01 -0.42,19.76l-327.24 0c2.82,48.12 16.37,85.09 40.92,110.63 24.41,25.54 55.03,38.38 91.58,38.38 27.24,0 50.52,-7.19 69.71,-21.59 19.33,-14.39 34.57,-37.39 45.86,-69zm-243.84 -119.38l244.69 0c-3.25,-36.97 -12.7,-64.63 -28.08,-83.12 -23.57,-28.64 -54.33,-43.03 -92.01,-43.03 -34.15,0 -62.79,11.43 -86.08,34.29 -23.14,22.86 -35.98,53.48 -38.52,91.86z"/>
  <path id="6" class="fil1" d="M13821.12 12182.81l73.66 -11.86c4.09,29.5 15.66,52.07 34.57,67.88 18.91,15.66 45.44,23.56 79.3,23.56 34.29,0 59.69,-6.91 76.35,-20.88 16.51,-13.83 24.83,-30.2 24.83,-48.97 0,-16.79 -7.48,-30.05 -22.29,-39.65 -10.45,-6.63 -35.85,-14.96 -76.2,-25.26 -54.47,-13.69 -92.15,-25.54 -113.32,-35.56 -21.02,-10.16 -36.97,-23.99 -47.83,-41.77 -10.87,-17.64 -16.37,-37.25 -16.37,-58.7 0,-19.61 4.51,-37.68 13.4,-54.33 9.03,-16.65 21.17,-30.48 36.55,-41.48 11.57,-8.47 27.38,-15.67 47.27,-21.6 20.04,-5.92 41.35,-8.89 64.21,-8.89 34.43,0 64.63,4.94 90.59,14.96 26.11,9.88 45.3,23.43 57.72,40.36 12.27,17.08 20.88,39.79 25.54,68.3l-72.82 10.16c-3.24,-22.86 -12.84,-40.78 -28.64,-53.62 -15.81,-12.84 -38.1,-19.19 -67.03,-19.19 -34.01,0 -58.42,5.64 -72.95,16.93 -14.54,11.29 -21.88,24.55 -21.88,39.65 0,9.6 2.97,18.35 9.03,26.11 6.07,7.9 15.53,14.53 28.51,19.75 7.48,2.82 29.21,9.17 65.62,19.05 52.49,13.97 89.18,25.54 110.06,34.43 20.89,8.89 37.26,22.02 49.11,38.95 11.99,17.07 17.92,38.24 17.92,63.64 0,24.7 -7.2,47.98 -21.73,69.85 -14.53,21.87 -35.42,38.81 -62.65,50.8 -27.38,12 -58.28,17.92 -92.71,17.92 -57.01,0 -100.62,-11.85 -130.53,-35.42 -29.92,-23.7 -48.97,-58.7 -57.29,-105.12z"/>
  <path id="7" class="fil1" d="M14557.72 12314.04l0 -55.74c-27.79,43.32 -68.72,65.05 -122.76,65.05 -35,0 -67.17,-9.59 -96.38,-28.92 -29.35,-19.2 -52.07,-46.15 -68.3,-80.58 -16.09,-34.57 -24.13,-74.22 -24.13,-119.1 0,-43.74 7.34,-83.39 21.87,-119.1 14.68,-35.56 36.55,-62.93 65.76,-81.84 29.07,-19.05 61.81,-28.51 97.79,-28.51 26.53,0 50.1,5.65 70.7,16.8 20.6,11.15 37.39,25.82 50.37,43.74l0 -218.02 74.51 0 0 606.22 -69.43 0zm-235.37 -219.15c0,56.17 11.85,98.08 35.7,125.88 23.71,27.79 51.79,41.62 84.1,41.62 32.6,0 60.26,-13.26 83.12,-39.79 22.72,-26.53 34.15,-67.03 34.15,-121.5 0,-59.83 -11.57,-103.86 -34.86,-131.94 -23.14,-28.08 -51.78,-42.05 -85.79,-42.05 -33.16,0 -60.82,13.41 -83.12,40.36 -22.15,26.95 -33.3,69.43 -33.3,127.42z"/>
  <path id="8" class="fil1" d="M15044.7 12171.8l77.05 10.16c-12,44.73 -34.43,79.59 -67.17,104.28 -32.74,24.7 -74.51,37.11 -125.45,37.11 -64.06,0 -114.86,-19.75 -152.4,-59.26 -37.54,-39.37 -56.3,-94.83 -56.3,-166.09 0,-73.66 18.91,-130.95 56.86,-171.59 37.96,-40.79 87.21,-61.11 147.75,-61.11 58.56,0 106.4,19.9 143.51,59.84 37.11,39.93 55.74,96.09 55.74,168.48 0,4.38 -0.14,11.01 -0.42,19.76l-327.24 0c2.82,48.12 16.37,85.09 40.92,110.63 24.41,25.54 55.03,38.38 91.58,38.38 27.24,0 50.52,-7.19 69.71,-21.59 19.33,-14.39 34.57,-37.39 45.86,-69zm-243.84 -119.38l244.69 0c-3.25,-36.97 -12.7,-64.63 -28.08,-83.12 -23.57,-28.64 -54.33,-43.03 -92.01,-43.03 -34.15,0 -62.79,11.43 -86.08,34.29 -23.14,22.86 -35.98,53.48 -38.52,91.86z"/>
  <path id="9" class="fil1" d="M15335.96 12314.04l-165.81 -439.42 79.73 0 93.98 263.17c10.16,28.36 19.61,57.86 28.22,88.48 6.63,-23.14 15.81,-50.94 27.8,-83.54l97.65 -268.11 76.48 0 -166.37 439.42 -71.68 0z"/>
 </g>
</svg>
